<svg width="16" height="15" viewBox="0 0 16 15" fill="none" xmlns="http://www.w3.org/2000/svg">
<path fill-rule="evenodd" clip-rule="evenodd" d="M8 1.67157C9.35925 1.67157 10.6457 1.05719 11.5 0C13.9853 0 16 2.01472 16 4.5C16 10.5 9 14.5 8 15C7 14.5 0 10.5 0 4.5C0 2.01472 2.01472 0 4.5 0C5.35434 1.05719 6.64075 1.67157 8 1.67157ZM14.5 4.5C14.4972 2.84429 13.1557 1.50275 11.5 1.5C10.5921 1.49985 9.73317 1.91183 9.165 2.62C8.87896 2.96953 8.45065 3.17156 7.999 3.17C7.54735 3.17156 7.11904 2.96953 6.833 2.62C6.03449 1.63225 4.70048 1.2544 3.50259 1.67668C2.30469 2.09896 1.50255 3.22985 1.5 4.5C1.5 8.92 6.216 12.19 8 13.27C9.783 12.19 14.5 8.92 14.5 4.5Z" fill="#998E76"/>
</svg>
